<svg width="0" height="0" class="hidden">
  <symbol xmlns="http://www.w3.org/2000/svg" viewBox="0 0 512 512" id="mail">
    <path d="M467 61H45c-6.927 0-13.412 1.703-19.279 4.51L255 294.789l51.389-49.387.005-.007.005-.004L486.286 65.514C480.418 62.705 473.929 61 467 61zm40.496 25.728L338.213 256.002 507.49 425.279c2.807-5.867 4.51-12.352 4.51-19.279V106c0-6.923-1.699-13.407-4.504-19.272zM4.51 86.721C1.703 92.588 0 99.073 0 106v300c0 6.923 1.701 13.409 4.506 19.274L173.789 256 4.51 86.721z"></path>
    <path d="M317.002 277.213l-51.396 49.393c-2.93 2.93-6.768 4.395-10.605 4.395s-7.676-1.465-10.605-4.395L195 277.211 25.714 446.486C31.582 449.295 38.071 451 45 451h422c6.927 0 13.412-1.703 19.279-4.51L317.002 277.213z"></path>
  </symbol>
  <symbol xmlns="http://www.w3.org/2000/svg" viewBox="0 0 512.001 512.001" id="home">
    <path d="M503.402 228.885L273.684 19.567c-10.083-9.189-25.288-9.188-35.367-.001L8.598 228.886c-8.077 7.36-10.745 18.7-6.799 28.889 3.947 10.189 13.557 16.772 24.484 16.772h36.69v209.721c0 8.315 6.742 15.057 15.057 15.057h125.914c8.315 0 15.057-6.741 15.057-15.057V356.932h74.002v127.337c0 8.315 6.742 15.057 15.057 15.057h125.908c8.315 0 15.057-6.741 15.057-15.057V274.547h36.697c10.926 0 20.537-6.584 24.484-16.772 3.941-10.19 1.273-21.529-6.804-28.89zM445.092 42.73H343.973l116.176 105.636v-90.58c0-8.315-6.741-15.056-15.057-15.056z"></path>
  </symbol>
  <symbol xmlns="http://www.w3.org/2000/svg" viewBox="0 0 512 512" id="led">
    <path d="M157.92 317.26v29.456L49.249 455.386 105.865 512l132.12-132.12v-62.62zm196.16 29.456V317.26h-80.065v62.62L406.135 512l56.616-56.613zm-60.049-197.807l11.222 11.222h17.587l11.222-11.222v-42.822H294.03v42.822zm20.017-30.812c8.291 0 15.012 6.722 15.012 15.012s-6.721 15.012-15.012 15.012-15.012-6.722-15.012-15.012 6.721-15.012 15.012-15.012zm-136.112 30.812l11.222 11.222h17.587l11.222-11.222v-42.822h-40.032v42.822zm20.016-30.812c8.291 0 15.012 6.722 15.012 15.012s-6.722 15.012-15.012 15.012c-8.291 0-15.012-6.722-15.012-15.012s6.722-15.012 15.012-15.012z"></path>
    <path d="M320.053 0H191.947c-52.426 0-95.078 42.652-95.078 95.078v142.117h86.071v-47.039h-6.218l-28.811-28.811V76.062h100.082v85.283l-28.811 28.811h-6.218v47.039h86.071v-47.039h-6.218l-28.811-28.811V76.062h100.082v85.283l-28.811 28.811h-6.218v47.039h86.071V95.078C415.13 42.652 372.479 0 320.053 0zM55.836 257.211h400.328v40.033H55.836z"></path>
  </symbol>
</svg>