<?xml version="1.0" encoding="iso-8859-1"?>
<!-- Generator: Adobe Illustrator 19.0.0, SVG Export Plug-In . SVG Version: 6.00 Build 0)  -->
<svg version="1.1" id="Capa_1" xmlns="http://www.w3.org/2000/svg" xmlns:xlink="http://www.w3.org/1999/xlink" x="0px" y="0px"
	 viewBox="0 0 512 512" style="enable-background:new 0 0 512 512;" xml:space="preserve">
<g>
	<g>
		<polygon points="157.92,317.26 157.92,346.716 49.249,455.386 105.865,512 237.985,379.88 237.985,317.26 		"/>
	</g>
</g>
<g>
	<g>
		<polygon points="354.08,346.716 354.08,317.26 274.015,317.26 274.015,379.88 406.135,512 462.751,455.387 		"/>
	</g>
</g>
<g>
	<g>
		<path d="M294.031,148.909l11.222,11.222h17.587l11.222-11.222v-42.822h-40.032V148.909z M314.048,118.097
			c8.291,0,15.012,6.722,15.012,15.012s-6.721,15.012-15.012,15.012c-8.291,0-15.012-6.722-15.012-15.012
			S305.757,118.097,314.048,118.097z"/>
	</g>
</g>
<g>
	<g>
		<path d="M177.936,148.909l11.222,11.222h17.587l11.222-11.222v-42.822h-40.032V148.909z M197.952,118.097
			c8.291,0,15.012,6.722,15.012,15.012s-6.722,15.012-15.012,15.012c-8.291,0-15.012-6.722-15.012-15.012
			S189.662,118.097,197.952,118.097z"/>
	</g>
</g>
<g>
	<g>
		<path d="M320.053,0H191.947c-52.426,0-95.078,42.652-95.078,95.078v142.117h86.071v-47.039h-6.218l-28.811-28.811V76.062h100.082
			v85.283l-28.811,28.811h-6.218v47.039h86.071v-47.039h-6.218l-28.811-28.811V76.062h100.082v85.283l-28.811,28.811h-6.218v47.039
			h86.071V95.078C415.13,42.652,372.479,0,320.053,0z"/>
	</g>
</g>
<g>
	<g>
		<rect x="55.836" y="257.211" width="400.328" height="40.033"/>
	</g>
</g>
<g>
</g>
<g>
</g>
<g>
</g>
<g>
</g>
<g>
</g>
<g>
</g>
<g>
</g>
<g>
</g>
<g>
</g>
<g>
</g>
<g>
</g>
<g>
</g>
<g>
</g>
<g>
</g>
<g>
</g>
</svg>
